<mxfile host="app.diagrams.net" modified="2022-12-21T06:06:42.036Z" agent="5.0 (Windows NT 10.0; Win64; x64) AppleWebKit/537.36 (KHTML, like Gecko) Chrome/108.0.0.0 Safari/537.36" etag="0HiaRzv5Y2nDRkzDzgD2" version="20.7.3" type="github">
  <diagram name="oneAir Path to production" id="v_0VwC1Siki2pA_AW-O5">
    <mxGraphModel dx="1900" dy="581" grid="1" gridSize="10" guides="1" tooltips="1" connect="1" arrows="1" fold="1" page="1" pageScale="1" pageWidth="850" pageHeight="1100" math="0" shadow="0">
      <root>
        <mxCell id="6KmleIaKSqS-X29-mKfF-0" />
        <mxCell id="6KmleIaKSqS-X29-mKfF-1" parent="6KmleIaKSqS-X29-mKfF-0" />
        <mxCell id="6KmleIaKSqS-X29-mKfF-3" value="" style="edgeStyle=orthogonalEdgeStyle;rounded=0;orthogonalLoop=1;jettySize=auto;html=1;startArrow=none;" parent="6KmleIaKSqS-X29-mKfF-1" source="6KmleIaKSqS-X29-mKfF-75" target="6KmleIaKSqS-X29-mKfF-8" edge="1">
          <mxGeometry relative="1" as="geometry" />
        </mxCell>
        <mxCell id="6KmleIaKSqS-X29-mKfF-4" value="Create branch from master" style="whiteSpace=wrap;html=1;" parent="6KmleIaKSqS-X29-mKfF-1" vertex="1">
          <mxGeometry x="-300" y="330" width="120" height="60" as="geometry" />
        </mxCell>
        <mxCell id="6KmleIaKSqS-X29-mKfF-5" value="" style="edgeStyle=orthogonalEdgeStyle;rounded=0;orthogonalLoop=1;jettySize=auto;html=1;" parent="6KmleIaKSqS-X29-mKfF-1" source="6KmleIaKSqS-X29-mKfF-6" target="6KmleIaKSqS-X29-mKfF-4" edge="1">
          <mxGeometry relative="1" as="geometry" />
        </mxCell>
        <mxCell id="6KmleIaKSqS-X29-mKfF-6" value="User Story" style="whiteSpace=wrap;html=1;" parent="6KmleIaKSqS-X29-mKfF-1" vertex="1">
          <mxGeometry x="-460" y="330" width="120" height="60" as="geometry" />
        </mxCell>
        <mxCell id="6KmleIaKSqS-X29-mKfF-7" value="" style="edgeStyle=orthogonalEdgeStyle;rounded=0;orthogonalLoop=1;jettySize=auto;html=1;" parent="6KmleIaKSqS-X29-mKfF-1" source="6KmleIaKSqS-X29-mKfF-8" target="6KmleIaKSqS-X29-mKfF-10" edge="1">
          <mxGeometry relative="1" as="geometry" />
        </mxCell>
        <mxCell id="6KmleIaKSqS-X29-mKfF-8" value="Merge&amp;nbsp; to master" style="whiteSpace=wrap;html=1;" parent="6KmleIaKSqS-X29-mKfF-1" vertex="1">
          <mxGeometry x="-4" y="330" width="120" height="60" as="geometry" />
        </mxCell>
        <mxCell id="6KmleIaKSqS-X29-mKfF-9" value="" style="edgeStyle=orthogonalEdgeStyle;rounded=0;orthogonalLoop=1;jettySize=auto;html=1;" parent="6KmleIaKSqS-X29-mKfF-1" source="6KmleIaKSqS-X29-mKfF-10" target="6KmleIaKSqS-X29-mKfF-12" edge="1">
          <mxGeometry relative="1" as="geometry" />
        </mxCell>
        <mxCell id="6KmleIaKSqS-X29-mKfF-10" value="Build" style="whiteSpace=wrap;html=1;" parent="6KmleIaKSqS-X29-mKfF-1" vertex="1">
          <mxGeometry x="145" y="330" width="120" height="60" as="geometry" />
        </mxCell>
        <mxCell id="6KmleIaKSqS-X29-mKfF-11" value="" style="edgeStyle=orthogonalEdgeStyle;rounded=0;orthogonalLoop=1;jettySize=auto;html=1;" parent="6KmleIaKSqS-X29-mKfF-1" source="6KmleIaKSqS-X29-mKfF-12" target="6KmleIaKSqS-X29-mKfF-35" edge="1">
          <mxGeometry relative="1" as="geometry" />
        </mxCell>
        <mxCell id="6KmleIaKSqS-X29-mKfF-12" value="Unit Test" style="whiteSpace=wrap;html=1;" parent="6KmleIaKSqS-X29-mKfF-1" vertex="1">
          <mxGeometry x="345" y="330" width="120" height="60" as="geometry" />
        </mxCell>
        <mxCell id="6KmleIaKSqS-X29-mKfF-13" value="" style="edgeStyle=orthogonalEdgeStyle;rounded=0;orthogonalLoop=1;jettySize=auto;html=1;" parent="6KmleIaKSqS-X29-mKfF-1" source="6KmleIaKSqS-X29-mKfF-14" target="6KmleIaKSqS-X29-mKfF-77" edge="1">
          <mxGeometry relative="1" as="geometry" />
        </mxCell>
        <mxCell id="6KmleIaKSqS-X29-mKfF-14" value="Deploy to QA (funky Chicken)" style="whiteSpace=wrap;html=1;" parent="6KmleIaKSqS-X29-mKfF-1" vertex="1">
          <mxGeometry x="945" y="330" width="120" height="60" as="geometry" />
        </mxCell>
        <mxCell id="6KmleIaKSqS-X29-mKfF-15" value="" style="edgeStyle=orthogonalEdgeStyle;rounded=0;orthogonalLoop=1;jettySize=auto;html=1;" parent="6KmleIaKSqS-X29-mKfF-1" source="6KmleIaKSqS-X29-mKfF-16" target="6KmleIaKSqS-X29-mKfF-47" edge="1">
          <mxGeometry relative="1" as="geometry" />
        </mxCell>
        <mxCell id="6KmleIaKSqS-X29-mKfF-16" value="Staging LTS" style="whiteSpace=wrap;html=1;" parent="6KmleIaKSqS-X29-mKfF-1" vertex="1">
          <mxGeometry x="950" y="450" width="120" height="60" as="geometry" />
        </mxCell>
        <mxCell id="6KmleIaKSqS-X29-mKfF-17" value="Staging Current" style="rounded=0;whiteSpace=wrap;html=1;" parent="6KmleIaKSqS-X29-mKfF-1" vertex="1">
          <mxGeometry x="950" y="580" width="120" height="60" as="geometry" />
        </mxCell>
        <mxCell id="6KmleIaKSqS-X29-mKfF-18" value="" style="edgeStyle=orthogonalEdgeStyle;rounded=0;orthogonalLoop=1;jettySize=auto;html=1;" parent="6KmleIaKSqS-X29-mKfF-1" source="6KmleIaKSqS-X29-mKfF-19" target="6KmleIaKSqS-X29-mKfF-16" edge="1">
          <mxGeometry relative="1" as="geometry" />
        </mxCell>
        <mxCell id="6KmleIaKSqS-X29-mKfF-19" value="" style="shape=actor;whiteSpace=wrap;html=1;" parent="6KmleIaKSqS-X29-mKfF-1" vertex="1">
          <mxGeometry x="870" y="450" width="40" height="60" as="geometry" />
        </mxCell>
        <mxCell id="6KmleIaKSqS-X29-mKfF-20" value="" style="edgeStyle=orthogonalEdgeStyle;rounded=0;orthogonalLoop=1;jettySize=auto;html=1;" parent="6KmleIaKSqS-X29-mKfF-1" target="6KmleIaKSqS-X29-mKfF-17" edge="1">
          <mxGeometry relative="1" as="geometry">
            <mxPoint x="910" y="610" as="sourcePoint" />
          </mxGeometry>
        </mxCell>
        <mxCell id="6KmleIaKSqS-X29-mKfF-21" value="" style="shape=actor;whiteSpace=wrap;html=1;" parent="6KmleIaKSqS-X29-mKfF-1" vertex="1">
          <mxGeometry x="870" y="570" width="40" height="60" as="geometry" />
        </mxCell>
        <mxCell id="6KmleIaKSqS-X29-mKfF-22" value="Manual&amp;nbsp;&lt;br&gt;Approval" style="text;html=1;align=center;verticalAlign=middle;resizable=0;points=[];autosize=1;strokeColor=none;fillColor=none;" parent="6KmleIaKSqS-X29-mKfF-1" vertex="1">
          <mxGeometry x="855" y="630" width="70" height="40" as="geometry" />
        </mxCell>
        <mxCell id="6KmleIaKSqS-X29-mKfF-23" value="Manual&amp;nbsp;&lt;br&gt;Approval" style="text;html=1;align=center;verticalAlign=middle;resizable=0;points=[];autosize=1;strokeColor=none;fillColor=none;" parent="6KmleIaKSqS-X29-mKfF-1" vertex="1">
          <mxGeometry x="855" y="510" width="70" height="40" as="geometry" />
        </mxCell>
        <mxCell id="6KmleIaKSqS-X29-mKfF-24" value="" style="edgeStyle=orthogonalEdgeStyle;rounded=0;orthogonalLoop=1;jettySize=auto;html=1;" parent="6KmleIaKSqS-X29-mKfF-1" source="6KmleIaKSqS-X29-mKfF-25" target="6KmleIaKSqS-X29-mKfF-83" edge="1">
          <mxGeometry relative="1" as="geometry" />
        </mxCell>
        <mxCell id="6KmleIaKSqS-X29-mKfF-25" value="Inspiretec LTS" style="whiteSpace=wrap;html=1;" parent="6KmleIaKSqS-X29-mKfF-1" vertex="1">
          <mxGeometry x="946" y="712" width="120" height="60" as="geometry" />
        </mxCell>
        <mxCell id="6KmleIaKSqS-X29-mKfF-26" value="" style="edgeStyle=orthogonalEdgeStyle;rounded=0;orthogonalLoop=1;jettySize=auto;html=1;" parent="6KmleIaKSqS-X29-mKfF-1" source="6KmleIaKSqS-X29-mKfF-27" target="6KmleIaKSqS-X29-mKfF-84" edge="1">
          <mxGeometry relative="1" as="geometry" />
        </mxCell>
        <mxCell id="6KmleIaKSqS-X29-mKfF-27" value="inspiretec Current" style="rounded=0;whiteSpace=wrap;html=1;" parent="6KmleIaKSqS-X29-mKfF-1" vertex="1">
          <mxGeometry x="945" y="820" width="120" height="60" as="geometry" />
        </mxCell>
        <mxCell id="6KmleIaKSqS-X29-mKfF-28" value="" style="edgeStyle=orthogonalEdgeStyle;rounded=0;orthogonalLoop=1;jettySize=auto;html=1;" parent="6KmleIaKSqS-X29-mKfF-1" target="6KmleIaKSqS-X29-mKfF-25" edge="1">
          <mxGeometry relative="1" as="geometry">
            <mxPoint x="906" y="742" as="sourcePoint" />
          </mxGeometry>
        </mxCell>
        <mxCell id="6KmleIaKSqS-X29-mKfF-29" value="" style="shape=actor;whiteSpace=wrap;html=1;" parent="6KmleIaKSqS-X29-mKfF-1" vertex="1">
          <mxGeometry x="865" y="700" width="40" height="60" as="geometry" />
        </mxCell>
        <mxCell id="6KmleIaKSqS-X29-mKfF-30" value="" style="edgeStyle=orthogonalEdgeStyle;rounded=0;orthogonalLoop=1;jettySize=auto;html=1;" parent="6KmleIaKSqS-X29-mKfF-1" source="6KmleIaKSqS-X29-mKfF-31" target="6KmleIaKSqS-X29-mKfF-27" edge="1">
          <mxGeometry relative="1" as="geometry" />
        </mxCell>
        <mxCell id="6KmleIaKSqS-X29-mKfF-31" value="" style="shape=actor;whiteSpace=wrap;html=1;" parent="6KmleIaKSqS-X29-mKfF-1" vertex="1">
          <mxGeometry x="865" y="820" width="40" height="60" as="geometry" />
        </mxCell>
        <mxCell id="6KmleIaKSqS-X29-mKfF-32" value="Manual&amp;nbsp;&lt;br&gt;Approval" style="text;html=1;align=center;verticalAlign=middle;resizable=0;points=[];autosize=1;strokeColor=none;fillColor=none;" parent="6KmleIaKSqS-X29-mKfF-1" vertex="1">
          <mxGeometry x="850" y="880" width="70" height="40" as="geometry" />
        </mxCell>
        <mxCell id="6KmleIaKSqS-X29-mKfF-33" value="Manual&amp;nbsp;&lt;br&gt;Approval" style="text;html=1;align=center;verticalAlign=middle;resizable=0;points=[];autosize=1;strokeColor=none;fillColor=none;" parent="6KmleIaKSqS-X29-mKfF-1" vertex="1">
          <mxGeometry x="850" y="760" width="70" height="40" as="geometry" />
        </mxCell>
        <mxCell id="6KmleIaKSqS-X29-mKfF-34" style="edgeStyle=orthogonalEdgeStyle;rounded=0;orthogonalLoop=1;jettySize=auto;html=1;entryX=0.1;entryY=0.5;entryDx=0;entryDy=0;entryPerimeter=0;" parent="6KmleIaKSqS-X29-mKfF-1" source="6KmleIaKSqS-X29-mKfF-35" target="6KmleIaKSqS-X29-mKfF-80" edge="1">
          <mxGeometry relative="1" as="geometry" />
        </mxCell>
        <mxCell id="6KmleIaKSqS-X29-mKfF-35" value="Publish to ACR" style="rounded=0;whiteSpace=wrap;html=1;" parent="6KmleIaKSqS-X29-mKfF-1" vertex="1">
          <mxGeometry x="510" y="330" width="120" height="60" as="geometry" />
        </mxCell>
        <mxCell id="6KmleIaKSqS-X29-mKfF-36" value="" style="endArrow=classic;html=1;rounded=0;entryX=0;entryY=0.5;entryDx=0;entryDy=0;startArrow=none;" parent="6KmleIaKSqS-X29-mKfF-1" source="6KmleIaKSqS-X29-mKfF-80" target="6KmleIaKSqS-X29-mKfF-14" edge="1">
          <mxGeometry width="50" height="50" relative="1" as="geometry">
            <mxPoint x="490" y="610" as="sourcePoint" />
            <mxPoint x="540" y="560" as="targetPoint" />
          </mxGeometry>
        </mxCell>
        <mxCell id="6KmleIaKSqS-X29-mKfF-37" value="Auto Deployment" style="text;html=1;align=center;verticalAlign=middle;resizable=0;points=[];autosize=1;strokeColor=none;fillColor=none;" parent="6KmleIaKSqS-X29-mKfF-1" vertex="1">
          <mxGeometry x="710" y="330" width="120" height="30" as="geometry" />
        </mxCell>
        <mxCell id="6KmleIaKSqS-X29-mKfF-38" value="" style="endArrow=classic;html=1;rounded=0;exitX=0.425;exitY=0.967;exitDx=0;exitDy=0;exitPerimeter=0;entryX=0;entryY=0.75;entryDx=0;entryDy=0;" parent="6KmleIaKSqS-X29-mKfF-1" source="6KmleIaKSqS-X29-mKfF-37" target="6KmleIaKSqS-X29-mKfF-19" edge="1">
          <mxGeometry width="50" height="50" relative="1" as="geometry">
            <mxPoint x="520" y="690" as="sourcePoint" />
            <mxPoint x="570" y="640" as="targetPoint" />
            <Array as="points">
              <mxPoint x="760" y="495" />
            </Array>
          </mxGeometry>
        </mxCell>
        <mxCell id="6KmleIaKSqS-X29-mKfF-39" value="" style="endArrow=classic;html=1;rounded=0;entryX=0;entryY=0.75;entryDx=0;entryDy=0;exitX=0.417;exitY=1.1;exitDx=0;exitDy=0;exitPerimeter=0;" parent="6KmleIaKSqS-X29-mKfF-1" source="6KmleIaKSqS-X29-mKfF-37" target="6KmleIaKSqS-X29-mKfF-21" edge="1">
          <mxGeometry width="50" height="50" relative="1" as="geometry">
            <mxPoint x="520" y="690" as="sourcePoint" />
            <mxPoint x="570" y="640" as="targetPoint" />
            <Array as="points">
              <mxPoint x="760" y="615" />
            </Array>
          </mxGeometry>
        </mxCell>
        <mxCell id="6KmleIaKSqS-X29-mKfF-40" value="" style="endArrow=classic;html=1;rounded=0;entryX=0;entryY=0.75;entryDx=0;entryDy=0;exitX=0.417;exitY=1.1;exitDx=0;exitDy=0;exitPerimeter=0;" parent="6KmleIaKSqS-X29-mKfF-1" edge="1">
          <mxGeometry width="50" height="50" relative="1" as="geometry">
            <mxPoint x="760.04" y="490" as="sourcePoint" />
            <mxPoint x="870" y="742" as="targetPoint" />
            <Array as="points">
              <mxPoint x="760" y="742" />
            </Array>
          </mxGeometry>
        </mxCell>
        <mxCell id="6KmleIaKSqS-X29-mKfF-41" value="" style="endArrow=classic;html=1;rounded=0;entryX=0;entryY=0.75;entryDx=0;entryDy=0;exitX=0.417;exitY=1.1;exitDx=0;exitDy=0;exitPerimeter=0;" parent="6KmleIaKSqS-X29-mKfF-1" edge="1">
          <mxGeometry width="50" height="50" relative="1" as="geometry">
            <mxPoint x="760.04" y="604" as="sourcePoint" />
            <mxPoint x="870" y="856" as="targetPoint" />
            <Array as="points">
              <mxPoint x="760" y="856" />
            </Array>
          </mxGeometry>
        </mxCell>
        <mxCell id="6KmleIaKSqS-X29-mKfF-42" value="" style="endArrow=classic;html=1;rounded=0;" parent="6KmleIaKSqS-X29-mKfF-1" target="6KmleIaKSqS-X29-mKfF-44" edge="1">
          <mxGeometry width="50" height="50" relative="1" as="geometry">
            <mxPoint x="1070" y="610" as="sourcePoint" />
            <mxPoint x="1150" y="610" as="targetPoint" />
          </mxGeometry>
        </mxCell>
        <mxCell id="6KmleIaKSqS-X29-mKfF-43" style="edgeStyle=orthogonalEdgeStyle;rounded=0;orthogonalLoop=1;jettySize=auto;html=1;" parent="6KmleIaKSqS-X29-mKfF-1" source="6KmleIaKSqS-X29-mKfF-44" target="6KmleIaKSqS-X29-mKfF-82" edge="1">
          <mxGeometry relative="1" as="geometry" />
        </mxCell>
        <mxCell id="6KmleIaKSqS-X29-mKfF-44" value="Publish Current to PROD ACR" style="rounded=1;whiteSpace=wrap;html=1;" parent="6KmleIaKSqS-X29-mKfF-1" vertex="1">
          <mxGeometry x="1145" y="580" width="120" height="60" as="geometry" />
        </mxCell>
        <mxCell id="6KmleIaKSqS-X29-mKfF-45" value="" style="edgeStyle=orthogonalEdgeStyle;rounded=0;orthogonalLoop=1;jettySize=auto;html=1;startArrow=none;" parent="6KmleIaKSqS-X29-mKfF-1" source="6KmleIaKSqS-X29-mKfF-49" target="6KmleIaKSqS-X29-mKfF-48" edge="1">
          <mxGeometry relative="1" as="geometry" />
        </mxCell>
        <mxCell id="6KmleIaKSqS-X29-mKfF-46" value="" style="edgeStyle=orthogonalEdgeStyle;rounded=0;orthogonalLoop=1;jettySize=auto;html=1;" parent="6KmleIaKSqS-X29-mKfF-1" source="6KmleIaKSqS-X29-mKfF-47" target="6KmleIaKSqS-X29-mKfF-79" edge="1">
          <mxGeometry relative="1" as="geometry" />
        </mxCell>
        <mxCell id="6KmleIaKSqS-X29-mKfF-47" value="Publish LTP to PROD ACR" style="rounded=1;whiteSpace=wrap;html=1;arcSize=0;" parent="6KmleIaKSqS-X29-mKfF-1" vertex="1">
          <mxGeometry x="1140" y="450" width="120" height="60" as="geometry" />
        </mxCell>
        <mxCell id="odCZFWH2qSIIaKnOjqTh-2" value="" style="edgeStyle=orthogonalEdgeStyle;rounded=0;orthogonalLoop=1;jettySize=auto;html=1;" parent="6KmleIaKSqS-X29-mKfF-1" source="6KmleIaKSqS-X29-mKfF-48" target="odCZFWH2qSIIaKnOjqTh-1" edge="1">
          <mxGeometry relative="1" as="geometry" />
        </mxCell>
        <mxCell id="6KmleIaKSqS-X29-mKfF-48" value="Deploy to Prod" style="rounded=0;whiteSpace=wrap;html=1;" parent="6KmleIaKSqS-X29-mKfF-1" vertex="1">
          <mxGeometry x="1620" y="447" width="120" height="60" as="geometry" />
        </mxCell>
        <mxCell id="6KmleIaKSqS-X29-mKfF-49" value="" style="shape=actor;whiteSpace=wrap;html=1;" parent="6KmleIaKSqS-X29-mKfF-1" vertex="1">
          <mxGeometry x="1530" y="447" width="40" height="60" as="geometry" />
        </mxCell>
        <mxCell id="odCZFWH2qSIIaKnOjqTh-4" value="" style="edgeStyle=orthogonalEdgeStyle;rounded=0;orthogonalLoop=1;jettySize=auto;html=1;" parent="6KmleIaKSqS-X29-mKfF-1" source="6KmleIaKSqS-X29-mKfF-50" target="odCZFWH2qSIIaKnOjqTh-3" edge="1">
          <mxGeometry relative="1" as="geometry" />
        </mxCell>
        <mxCell id="6KmleIaKSqS-X29-mKfF-50" value="Deploy to Prod" style="rounded=0;whiteSpace=wrap;html=1;" parent="6KmleIaKSqS-X29-mKfF-1" vertex="1">
          <mxGeometry x="1620" y="580" width="120" height="60" as="geometry" />
        </mxCell>
        <mxCell id="6KmleIaKSqS-X29-mKfF-51" value="" style="edgeStyle=orthogonalEdgeStyle;rounded=0;orthogonalLoop=1;jettySize=auto;html=1;startArrow=none;" parent="6KmleIaKSqS-X29-mKfF-1" edge="1">
          <mxGeometry relative="1" as="geometry">
            <mxPoint x="1581" y="607" as="sourcePoint" />
            <mxPoint x="1620" y="607" as="targetPoint" />
          </mxGeometry>
        </mxCell>
        <mxCell id="6KmleIaKSqS-X29-mKfF-52" value="" style="shape=actor;whiteSpace=wrap;html=1;" parent="6KmleIaKSqS-X29-mKfF-1" vertex="1">
          <mxGeometry x="1540" y="580" width="40" height="60" as="geometry" />
        </mxCell>
        <mxCell id="6KmleIaKSqS-X29-mKfF-53" value="Manual&amp;nbsp;&lt;br&gt;Approval" style="text;html=1;align=center;verticalAlign=middle;resizable=0;points=[];autosize=1;strokeColor=none;fillColor=none;" parent="6KmleIaKSqS-X29-mKfF-1" vertex="1">
          <mxGeometry x="1530" y="640" width="70" height="40" as="geometry" />
        </mxCell>
        <mxCell id="6KmleIaKSqS-X29-mKfF-54" value="Manual&amp;nbsp;&lt;br&gt;Approval" style="text;html=1;align=center;verticalAlign=middle;resizable=0;points=[];autosize=1;strokeColor=none;fillColor=none;" parent="6KmleIaKSqS-X29-mKfF-1" vertex="1">
          <mxGeometry x="1515" y="517" width="70" height="40" as="geometry" />
        </mxCell>
        <mxCell id="6KmleIaKSqS-X29-mKfF-75" value="code" style="whiteSpace=wrap;html=1;" parent="6KmleIaKSqS-X29-mKfF-1" vertex="1">
          <mxGeometry x="-155" y="330" width="120" height="60" as="geometry" />
        </mxCell>
        <mxCell id="6KmleIaKSqS-X29-mKfF-77" value="Testing happens" style="whiteSpace=wrap;html=1;" parent="6KmleIaKSqS-X29-mKfF-1" vertex="1">
          <mxGeometry x="1145" y="330" width="120" height="60" as="geometry" />
        </mxCell>
        <mxCell id="6KmleIaKSqS-X29-mKfF-78" style="edgeStyle=orthogonalEdgeStyle;rounded=0;orthogonalLoop=1;jettySize=auto;html=1;entryX=-0.1;entryY=0.531;entryDx=0;entryDy=0;entryPerimeter=0;" parent="6KmleIaKSqS-X29-mKfF-1" source="6KmleIaKSqS-X29-mKfF-79" target="6KmleIaKSqS-X29-mKfF-49" edge="1">
          <mxGeometry relative="1" as="geometry" />
        </mxCell>
        <mxCell id="6KmleIaKSqS-X29-mKfF-79" value="Testing by QA Team" style="rounded=0;whiteSpace=wrap;html=1;" parent="6KmleIaKSqS-X29-mKfF-1" vertex="1">
          <mxGeometry x="1310" y="450" width="120" height="60" as="geometry" />
        </mxCell>
        <mxCell id="6KmleIaKSqS-X29-mKfF-80" value="" style="shape=actor;whiteSpace=wrap;html=1;" parent="6KmleIaKSqS-X29-mKfF-1" vertex="1">
          <mxGeometry x="840" y="330" width="40" height="60" as="geometry" />
        </mxCell>
        <mxCell id="6KmleIaKSqS-X29-mKfF-81" style="edgeStyle=orthogonalEdgeStyle;rounded=0;orthogonalLoop=1;jettySize=auto;html=1;" parent="6KmleIaKSqS-X29-mKfF-1" source="6KmleIaKSqS-X29-mKfF-82" target="6KmleIaKSqS-X29-mKfF-52" edge="1">
          <mxGeometry relative="1" as="geometry" />
        </mxCell>
        <mxCell id="6KmleIaKSqS-X29-mKfF-82" value="Testing by QA Team" style="rounded=0;whiteSpace=wrap;html=1;" parent="6KmleIaKSqS-X29-mKfF-1" vertex="1">
          <mxGeometry x="1340" y="580" width="120" height="60" as="geometry" />
        </mxCell>
        <mxCell id="6KmleIaKSqS-X29-mKfF-83" value="Testing by QA Team" style="whiteSpace=wrap;html=1;" parent="6KmleIaKSqS-X29-mKfF-1" vertex="1">
          <mxGeometry x="1146" y="712" width="120" height="60" as="geometry" />
        </mxCell>
        <mxCell id="6KmleIaKSqS-X29-mKfF-84" value="Testing by QA Team" style="rounded=0;whiteSpace=wrap;html=1;" parent="6KmleIaKSqS-X29-mKfF-1" vertex="1">
          <mxGeometry x="1145" y="820" width="120" height="60" as="geometry" />
        </mxCell>
        <mxCell id="odCZFWH2qSIIaKnOjqTh-0" value="" style="endArrow=classic;html=1;rounded=0;entryX=0;entryY=0.5;entryDx=0;entryDy=0;exitX=1;exitY=0.5;exitDx=0;exitDy=0;" parent="6KmleIaKSqS-X29-mKfF-1" source="6KmleIaKSqS-X29-mKfF-4" target="6KmleIaKSqS-X29-mKfF-75" edge="1">
          <mxGeometry width="50" height="50" relative="1" as="geometry">
            <mxPoint x="200" y="390" as="sourcePoint" />
            <mxPoint x="250" y="340" as="targetPoint" />
          </mxGeometry>
        </mxCell>
        <mxCell id="odCZFWH2qSIIaKnOjqTh-1" value="Sanity Checks &lt;br&gt;by QA" style="whiteSpace=wrap;html=1;rounded=0;" parent="6KmleIaKSqS-X29-mKfF-1" vertex="1">
          <mxGeometry x="1820" y="447" width="120" height="60" as="geometry" />
        </mxCell>
        <mxCell id="odCZFWH2qSIIaKnOjqTh-3" value="Sanity Checks &lt;br&gt;by QA" style="whiteSpace=wrap;html=1;rounded=0;" parent="6KmleIaKSqS-X29-mKfF-1" vertex="1">
          <mxGeometry x="1820" y="580" width="120" height="60" as="geometry" />
        </mxCell>
      </root>
    </mxGraphModel>
  </diagram>
</mxfile>
